<svg
    id="logo"
    data-name="logo"
    xmlns="http://www.w3.org/2000/svg"
    viewBox="0 0 455.81 867.1"
>
    <path
    d="M522.46,330.47c-7.74,25.13-10.26,51.2-9,77.06a230.35,230.35,0,0,0,21.39,86.72,46.36,46.36,0,0,0,2.56,4.27l1.1,1.42.57-.28-.8-1.92c-9.95-29-13.51-59-13-89.5.41-25.08,4-49.71,13.57-73.21,7.23-17.76,18.33-31.46,35.94-40.3,32.13-16.12,63.47-33.8,95.72-49.63,21.28-10.45,38.23-25.38,54.32-42.38,18.82-19.9,25.51-43.93,28.11-69.86.81-8,.12-16.21.12-24.32l1.23-.43c1.3,2.87,3.22,5.63,3.79,8.65,2.81,15,6.54,30,7.56,45.19,1.76,26.41,2.78,53,2.29,79.4-.9,47.38-7.44,94.18-17.28,140.55-8.1,38.21-18.67,75.56-35.79,110.83a331.32,331.32,0,0,1-31.65,51.94Q655,583,609.07,593.86c-20.38,4.85-41,8.76-61.49,13.1-15.63,3.31-25.83,7.3-32,13.18,1.58-.53,3.21-.95,4.73-1.61,14.9-6.46,30.63-8.55,46.68-9.63,17.26-1.17,34.61-2.26,51.7-4.85,25.21-3.83,46.13-16.46,63.79-34.66,1.14-1.17,2.37-2.24,3.56-3.36l-.08-.1c-.19,1.41,0,3-.62,4.2-19.63,40.6-44.83,76.27-87.75,95.2-17.47,7.7-35.48,14.27-53.52,20.56-25.19,8.79-46.63,23.51-66.19,41.06-11.62,10.43-22.06,22.17-33,33.35a5.41,5.41,0,0,0-1.38,2.87c61.89-21.61,122.91-45,177.8-82.54-1,1.55-1.92,3.18-3,4.65-13.35,17.51-29.6,32.06-47.16,45.14-41.48,30.88-86.12,56.1-134.75,74-3.74,1.38-7.58,3-11.46,3.33-6,.45-9.59,3.73-12.85,8.17-11.24,15.3-22.73,30.43-33.78,45.86-2.33,3.25-3.46,7.44-4.75,11.33-2.45,7.39-4.2,15-7,22.29C359.35,914,351.77,932.48,344.36,951c-1.51,3.78-3.11,7.28-7.79,8.28-1.35.28-2.44,2.11-3.51,3.35-3.23,3.72-6.39,7.5-10.69,12.56-1.7-6.13-3.36-10.76-4.23-15.53-1.27-7-1.87-14.19-3-21.26-.73-4.68,1-8.6,2.58-12.87,5-13.72,9.28-27.74,14.23-41.5,3-8.43,7-16.52,10.07-24.93,1.15-3.16.66-6.88,1.39-10.24,1.85-8.44,4.39-16.75,5.88-25.24a49,49,0,0,0-4-30C335.38,772,324.9,750.44,318,727.85c-12-39.06-4.26-76.62,15.16-112.24-.48,5.59-1,11.17-1.43,16.77-.9,12.29-1.46,24.62-2.64,36.88-1.82,18.94,2.51,36.7,9.57,54,3.24,7.94,6.77,15.76,10.72,23.49-3.64-83.61,4.39-165.63,28.8-245.71,0,16.47-.35,33,.1,49.4.47,16.64,2,33.25,2.59,49.89s.74,33.32.88,50,0,33.24,0,50.08a33.31,33.31,0,0,0,1.95-2.94c12.48-23.69,22.51-48.23,25.78-75.08,1.77-14.58-.5-28.87-3-43.18-3.23-18.86-6.49-37.73-9.12-56.68-3.23-23.26,2.87-44.84,13-65.62A301.28,301.28,0,0,1,491.65,354.3c10-8.19,20.19-16.26,30.29-24.38C522.11,330.11,522.28,330.29,522.46,330.47ZM347.89,858.09c7.37,2.31,13.45,3.94,19.31,6.16,3.74,1.41,5.24.39,6.61-3.14,5.45-14.07,10.88-28.17,16.85-42C438.73,707.62,498.48,602.63,566.93,502.5Q613.05,435,665.14,372.08c1.45-1.73,2.65-3.67,4-5.51l-1-.79c-1.25,1-2.55,2-3.76,3-38.87,33.79-73.24,71.84-105.19,112.11C488.08,570.49,430,668,383.49,772.32,371,800.3,360,828.91,347.89,858.09Z"
    transform="translate(-312.22 -108.11)"
    />
    <path
    d="M347.89,858.09C360,828.91,371,800.3,383.49,772.32,430,668,488.08,570.49,559.16,480.93c32-40.27,66.32-78.32,105.19-112.11,1.21-1.06,2.51-2,3.76-3l1,.79c-1.32,1.84-2.52,3.78-4,5.51Q613,435,566.93,502.5c-68.45,100.13-128.2,205.12-176.27,316.59-6,13.85-11.4,27.95-16.85,42-1.37,3.53-2.87,4.55-6.61,3.14C361.34,862,355.26,860.4,347.89,858.09Z"
    transform="translate(-312.22 -108.11)"
    fill="#fcfdfd"
    />
</svg>